<svg id="accordian" xmlns="http://www.w3.org/2000/svg" viewBox="0 0 88.3 74.35"><defs><style>.cls-1{fill:#231f20;}.cls-1,.cls-2{stroke:#fff;}.cls-1,.cls-2,.cls-3,.cls-4,.cls-5{stroke-miterlimit:10;}.cls-1,.cls-2,.cls-5{stroke-width:0.5px;}.cls-2,.cls-3,.cls-5{fill:#fff;}.cls-3,.cls-4,.cls-5{stroke:#231f20;}.cls-4{fill:none;}</style></defs><g id="accordian-2" data-name="accordian"><path class="cls-1" d="M.25,19.87v-7l21-2.18,7.62,52.57L7.41,67.13,5,60.73Z"/><polygon class="cls-2" points="0.28 19.87 15.94 17.82 21.25 57.59 5.04 60.73 1.18 27.64 0.28 19.87"/><line class="cls-3" x1="7.5" y1="27.08" x2="1.18" y2="27.63"/><line class="cls-3" x1="8.18" y1="35.39" x2="2.18" y2="36.21"/><line class="cls-3" x1="9.13" y1="42.88" x2="3.09" y2="43.99"/><line class="cls-3" x1="10.76" y1="51.19" x2="4.11" y2="52.69"/><path class="cls-1" d="M21.25,10.74s.55-8,12-5.72c0,0,5.45-10.24,9.53-.42,0,0,7.08-9.8,11.44,0,0,0,6.54-7.49,10.9.89,0,0,7.9-6.88,10.35,2.65L56,67.13S46,65.36,41.55,66.45c0,0-10.22,3.54-12.67-3.14S21.25,10.74,21.25,10.74Z"/><line class="cls-1" x1="44" y1="19.59" x2="42.77" y2="4.6"/><line class="cls-1" x1="53.67" y1="19.59" x2="54.21" y2="4.61"/><line class="cls-1" x1="62.79" y1="20.41" x2="65.11" y2="5.5"/><polyline class="cls-1" points="41.55 66.45 36.91 31.03 33.24 5.02"/><path class="cls-4" d="M74.28,53.75C81.55,58.49,85.81,44,85.81,44s6.34-14.43-3.64-14.17"/><path class="cls-1" d="M75.46,8.15S91.67,9.24,85.54,19.59L74.28,53.75l-4.4,13.38s-5.18,6-13.9,0"/><circle class="cls-5" cx="68.75" cy="49.42" r="2.5"/><circle class="cls-5" cx="71.75" cy="39.42" r="2.5"/><circle class="cls-5" cx="75.75" cy="30.42" r="2.5"/></g></svg>