<svg id="bassDrum" xmlns="http://www.w3.org/2000/svg" viewBox="0 0 89.6 87.7"><defs><style>.cls-1{fill:#231f20;}.cls-1,.cls-2{stroke:#231f20;stroke-miterlimit:10;stroke-width:0.5px;}.cls-2{fill:#fff;}</style></defs><g id="bass_bg"><path class="cls-1" d="M11.6,20.76S27.09,16,34.83,24c0,0,13,4.91,16.66,13.73a36.1,36.1,0,0,1,6.57,27.13s3.87,12.58-11.28,20.75A21.74,21.74,0,0,1,39,87.43c-5.74.24-9.93-2-14.65-4.41a46,46,0,0,1-13-9.64A43.85,43.85,0,0,1,2.34,58.51,65.28,65.28,0,0,1,.58,48.15C0,42.37,0,35.38,2.34,30.56,2.34,30.56,6.55,22.88,11.6,20.76Z"/><path class="cls-1" d="M12.75,21.91S27.28,17.38,34.54,25c0,0,12.16,4.69,15.63,13.13A34.94,34.94,0,0,1,56.33,64.1s3.63,12-10.58,19.84a20.15,20.15,0,0,1-7.26,1.72c-5.39.23-9.32-1.86-13.74-4.22a43.23,43.23,0,0,1-12.16-9.22A42,42,0,0,1,4.06,58a62.82,62.82,0,0,1-1.65-9.9c-.56-5.53-.56-12.21,1.65-16.82C4.06,31.28,8,23.94,12.75,21.91Z"/></g><path id="bass" class="cls-2" d="M12.75,21.91S27.28,17.38,34.54,25c0,0,12.16,4.69,15.63,13.13A34.94,34.94,0,0,1,56.33,64.1s3.63,12-10.58,19.84a20.15,20.15,0,0,1-7.26,1.72c-5.39.23-9.32-1.86-13.74-4.22a43.23,43.23,0,0,1-12.16-9.22A42,42,0,0,1,4.06,58a62.82,62.82,0,0,1-1.65-9.9c-.56-5.53-.56-12.21,1.65-16.82C4.06,31.28,8,23.94,12.75,21.91Z"/><path id="base_bg" class="cls-1" d="M10.92,20.58,42.42,2.65s7.27-2.91,14.37,0c0,0,22.13,10.66,24.23,19.87,0,0,8.08,11.14,5.82,30.61,0,0-1,7.67-4.85,11.22L53,81.1s7-13.7,3.3-17c0,0,3.27-13.86-4.84-26.35,0,0-8.74-10.6-16.66-13.73C34.83,24,33.05,19.77,10.92,20.58Z"/><g id="details"><path class="cls-2" d="M10.23,21.49s-4.48.86-2.06-2.13L40.32.39s3.39-1,2.1,2.26Z"/><path class="cls-2" d="M30.61,21.09l11.16-5.84s3.55-.81,1.78,2.1L33.11,22.72"/><path class="cls-2" d="M52.82,8l10-5.63s4-.51,1.78,2.82L55,9.59,46,14.12l-4.2-2.43"/><path class="cls-2" d="M50.7,36.83,80.86,19.36s2.5.44,1.62,2.24L52.43,39.15"/><path class="cls-2" d="M58.38,62.48,66,58.7s3.55-1.39,1.78,1.89L57.3,66"/><polyline class="cls-2" points="66.68 61.15 70.2 62.9 79.41 58.41 79.41 53.41 74.72 49.81 66 55.31 66 58.7"/><path class="cls-2" d="M76.77,51.38l10.47-5.44s3.8-1.18,1.21,2.72l-9,4.75-9.21,4L66,55.31"/><path class="cls-2" d="M48.39,84.7,82,64.35s4.09.49.67,3.07l-32,18.26S49.36,87.93,48.39,84.7Z"/><line class="cls-2" x1="70.2" y1="62.9" x2="70.2" y2="57.41"/><line class="cls-2" x1="46.29" y1="19.36" x2="45.97" y2="14.12"/><polyline class="cls-2" points="43.55 17.35 46.29 19.36 55.02 14.28 55.02 9.59 50.49 6.2 41.77 11.69 41.77 15.25"/><path class="cls-2" d="M73.45,61.31l4.23,20.33s.11,1.93,1.73.8l.8,5"/><path class="cls-2" d="M75.83,60.15,80.21,81.1a.87.87,0,0,1-.8,1.34"/></g></svg>