<svg id="drum1" xmlns="http://www.w3.org/2000/svg" viewBox="0 0 89.81 89.34"><defs><style>.cls-1{fill:#231f20;}.cls-1,.cls-2{stroke:#231f20;stroke-miterlimit:10;stroke-width:0.5px;}.cls-2{fill:#fff;}</style></defs><g id="drum1-2" data-name="drum1"><path class="cls-1" d="M3.81,40.45s1.19-15,9.5-22.62l-1-2.41,3.09-3.06,1.67,1.19S29.7,2.39,41.34,3.81L43.24.25h3.33l2.14,3.09s18.05,2.37,22.8,10.21l3.56-1.19,2.86,3.06L76.5,18.07s9.74,12.59,10,23.51l3.08,1.89v3.1l-3.8,2.14s.95,10.69-9.73,23l1.66,2.85-2.85,3.09L72,76.5S57,87.19,48,85.76l-1.31,3.33H43l-1.9-2.85s-15.21-.71-23.28-10L15,77.21,12.13,74.6l.95-2.85S3.4,60.48,3.81,49L.25,46.81V43.47Z"/><ellipse class="cls-1" cx="44.94" cy="45.13" rx="38.04" ry="38.73"/><circle class="cls-2" cx="44.67" cy="44.47" r="35.39"/></g></svg>