<svg id="drum2" xmlns="http://www.w3.org/2000/svg" viewBox="0 0 89.12 69"><defs><style>.cls-1,.cls-3{fill:#231f20;}.cls-1,.cls-2{stroke:#231f20;stroke-miterlimit:10;stroke-width:0.5px;}.cls-2{fill:#fff;}</style></defs><path class="cls-1" d="M12.19,31.25s.92-11.58,7.33-17.45L18.79,12l2.38-2.36,1.28.92S32.16,1.9,41.13,3L42.6.25h2.56l1.65,2.38S60.73,4.46,64.4,10.51l2.74-.92L69.34,12l-1.1,2s7.51,9.7,7.7,18.13l2.38,1.46V36l-2.93,1.64s.73,8.25-7.51,17.77l1.28,2.2L67,60,64.76,59s-11.54,8.25-18.5,7.15l-1,2.56H42.42L41,66.55S29.23,66,23,58.86l-2.2.73-2.19-2,.73-2.2s-7.46-8.69-7.15-17.58L9.45,36.15V33.58Z"/><ellipse class="cls-1" cx="43.91" cy="34.86" rx="29.33" ry="29.87"/><circle class="cls-2" cx="43.7" cy="34.35" r="27.29"/><path class="cls-3" d="M88,17.31l1.1,3.3L43.33,30.32s-1.28,2.74-3.66,0c0,0,.55-2.93,3.3-.92Z"/><path class="cls-3" d="M0,32.54.48,29.1,45.83,40.68s2.36-1.9,3.28,1.62c0,0-1.79,2.39-3.36-.64Z"/></svg>