<?xml version="1.0" encoding="UTF-8" standalone="no"?>
<!DOCTYPE svg PUBLIC "-//W3C//DTD SVG 1.1//EN" "http://www.w3.org/Graphics/SVG/1.1/DTD/svg11.dtd">
<svg width="100%" height="100%" viewBox="0 0 90 90" version="1.1" xmlns="http://www.w3.org/2000/svg" xmlns:xlink="http://www.w3.org/1999/xlink" xml:space="preserve" xmlns:serif="http://www.serif.com/" style="fill-rule:evenodd;clip-rule:evenodd;stroke-linejoin:round;stroke-miterlimit:2;">
    <g transform="matrix(1.25579,0,0,1.25579,14.9548,-0.316767)">
        <path d="M36.35,71.89L11.7,71.89L8.1,68C8.1,68 14.19,24.8 10.59,15.38L9.48,4.88C9.48,4.88 18.35,7.09 20.29,2.94C20.29,2.94 23.61,-1.77 23.89,1.28" style="fill:rgb(35,31,32);fill-rule:nonzero;"/>
    </g>
    <g transform="matrix(1.25579,0,0,1.25579,14.9548,-0.316767)">
        <path d="M10.12,9.78L8.12,9.78C8.12,9.78 -0.74,14.83 0.37,9.78" style="fill:rgb(35,31,32);fill-rule:nonzero;"/>
    </g>
    <g transform="matrix(1.25579,0,0,1.25579,14.9548,-0.316767)">
        <path d="M10.12,9.78L8.12,9.78C8.12,9.78 -0.74,4.78 0.37,9.78" style="fill:rgb(35,31,32);fill-rule:nonzero;"/>
    </g>
    <g transform="matrix(1.25579,0,0,1.25579,14.9548,-0.316767)">
        <path d="M11.5,20.11L9.5,20.11C9.5,20.11 0.64,25.16 1.75,20.11" style="fill:rgb(35,31,32);fill-rule:nonzero;"/>
    </g>
    <g transform="matrix(1.25579,0,0,1.25579,14.9548,-0.316767)">
        <path d="M11.5,20.11L9.5,20.11C9.5,20.11 0.64,15.11 1.75,20.11" style="fill:rgb(35,31,32);fill-rule:nonzero;"/>
    </g>
    <g transform="matrix(1.25579,0,0,1.25579,14.9548,-0.316767)">
        <path d="M11.5,30.44L9.5,30.44C9.5,30.44 0.64,35.49 1.75,30.44" style="fill:rgb(35,31,32);fill-rule:nonzero;"/>
    </g>
    <g transform="matrix(1.25579,0,0,1.25579,14.9548,-0.316767)">
        <path d="M11.5,30.44L9.5,30.44C9.5,30.44 0.64,25.38 1.75,30.44" style="fill:rgb(35,31,32);fill-rule:nonzero;"/>
    </g>
    <g transform="matrix(1.25579,0,0,1.25579,14.9548,-0.316767)">
        <path d="M11.5,38.32L9.5,38.32C9.5,38.32 0.64,43.32 1.75,38.32" style="fill:rgb(35,31,32);fill-rule:nonzero;"/>
    </g>
    <g transform="matrix(1.25579,0,0,1.25579,14.9548,-0.316767)">
        <path d="M11.5,38.32L9.5,38.32C9.5,38.32 0.64,33.32 1.75,38.32" style="fill:rgb(35,31,32);fill-rule:nonzero;"/>
    </g>
    <g transform="matrix(1.25579,0,0,1.25579,14.9548,-0.316767)">
        <path d="M10.12,47.52L8.12,47.52C8.12,47.52 -0.74,52.58 0.37,47.52" style="fill:rgb(35,31,32);fill-rule:nonzero;"/>
    </g>
    <g transform="matrix(1.25579,0,0,1.25579,14.9548,-0.316767)">
        <path d="M10.12,47.52L8.12,47.52C8.12,47.52 -0.74,42.47 0.37,47.52" style="fill:rgb(35,31,32);fill-rule:nonzero;"/>
    </g>
    <g transform="matrix(1.25579,0,0,1.25579,14.9548,-0.316767)">
        <path d="M10.12,55.56L8.12,55.56C8.12,55.56 -0.74,60.56 0.37,55.56" style="fill:rgb(35,31,32);fill-rule:nonzero;"/>
    </g>
    <g transform="matrix(1.25579,0,0,1.25579,14.9548,-0.316767)">
        <path d="M10.12,55.56L8.12,55.56C8.12,55.56 -0.74,50.5 0.37,55.56" style="fill:rgb(35,31,32);fill-rule:nonzero;"/>
    </g>
    <g transform="matrix(1.25579,0,0,1.25579,14.9548,-0.316767)">
        <path d="M11.5,71.92L36.15,71.92L39.75,68C39.75,68 33.66,24.8 37.26,15.38L38.37,4.9C38.37,4.9 29.5,7.11 27.57,3C27.57,3 24.24,-1.71 23.97,1.34" style="fill:rgb(35,31,32);fill-rule:nonzero;"/>
    </g>
    <g transform="matrix(1.25579,0,0,1.25579,14.9548,-0.316767)">
        <path d="M37.73,9.8L39.73,9.8C39.73,9.8 48.59,14.8 47.49,9.8" style="fill:rgb(35,31,32);fill-rule:nonzero;"/>
    </g>
    <g transform="matrix(1.25579,0,0,1.25579,14.9548,-0.316767)">
        <path d="M37.73,9.8L39.73,9.8C39.73,9.8 48.59,4.75 47.49,9.8" style="fill:rgb(35,31,32);fill-rule:nonzero;"/>
    </g>
    <g transform="matrix(1.25579,0,0,1.25579,14.9548,-0.316767)">
        <path d="M36.35,20.13L38.35,20.13C38.35,20.13 47.21,25.18 46.1,20.13" style="fill:rgb(35,31,32);fill-rule:nonzero;"/>
    </g>
    <g transform="matrix(1.25579,0,0,1.25579,14.9548,-0.316767)">
        <path d="M36.35,20.13L38.35,20.13C38.35,20.13 47.21,15.13 46.1,20.13" style="fill:rgb(35,31,32);fill-rule:nonzero;"/>
    </g>
    <g transform="matrix(1.25579,0,0,1.25579,14.9548,-0.316767)">
        <path d="M36.35,30.46L38.35,30.46C38.35,30.46 47.21,35.46 46.1,30.46" style="fill:rgb(35,31,32);fill-rule:nonzero;"/>
    </g>
    <g transform="matrix(1.25579,0,0,1.25579,14.9548,-0.316767)">
        <path d="M36.35,30.46L38.35,30.46C38.35,30.46 47.21,25.41 46.1,30.46" style="fill:rgb(35,31,32);fill-rule:nonzero;"/>
    </g>
    <g transform="matrix(1.25579,0,0,1.25579,14.9548,-0.316767)">
        <path d="M36.35,38.34L38.35,38.34C38.35,38.34 47.21,43.34 46.1,38.34" style="fill:rgb(35,31,32);fill-rule:nonzero;"/>
    </g>
    <g transform="matrix(1.25579,0,0,1.25579,14.9548,-0.316767)">
        <path d="M36.35,38.34L38.35,38.34C38.35,38.34 47.21,33.29 46.1,38.34" style="fill:rgb(35,31,32);fill-rule:nonzero;"/>
    </g>
    <g transform="matrix(1.25579,0,0,1.25579,14.9548,-0.316767)">
        <path d="M37.73,47.55L39.73,47.55C39.73,47.55 48.59,52.6 47.49,47.55" style="fill:rgb(35,31,32);fill-rule:nonzero;"/>
    </g>
    <g transform="matrix(1.25579,0,0,1.25579,14.9548,-0.316767)">
        <path d="M37.73,47.55L39.73,47.55C39.73,47.55 48.59,42.55 47.49,47.55" style="fill:rgb(35,31,32);fill-rule:nonzero;"/>
    </g>
    <g transform="matrix(1.25579,0,0,1.25579,14.9548,-0.316767)">
        <path d="M37.73,55.58L39.73,55.58C39.73,55.58 48.59,60.63 47.49,55.58" style="fill:rgb(35,31,32);fill-rule:nonzero;"/>
    </g>
    <g transform="matrix(1.25579,0,0,1.25579,14.9548,-0.316767)">
        <path d="M37.73,55.58L39.73,55.58C39.73,55.58 48.59,50.58 47.49,55.58" style="fill:rgb(35,31,32);fill-rule:nonzero;"/>
    </g>
    <g transform="matrix(1.25579,0,0,1.25579,14.9548,-0.316767)">
        <path d="M16.96,71.76L23.61,9.92L30.81,71.76" style="fill:white;fill-rule:nonzero;"/>
    </g>
</svg>
