<svg id="guitar1" xmlns="http://www.w3.org/2000/svg" viewBox="0 0 47.85 72.17"><defs><style>.cls-1{fill:#231f20;}.cls-1,.cls-2{stroke:#231f20;stroke-miterlimit:10;stroke-width:0.5px;}.cls-2{fill:#fff;}</style></defs><path class="cls-1" d="M36.35,71.89H11.7L8.1,68s6.09-43.2,2.49-52.62L9.48,4.88s8.87,2.21,10.81-1.94c0,0,3.32-4.71,3.6-1.66"/><path class="cls-1" d="M10.12,9.78h-2s-8.86,5.05-7.75,0"/><path class="cls-1" d="M10.12,9.78h-2s-8.86-5-7.75,0"/><path class="cls-1" d="M11.5,20.11h-2s-8.86,5.05-7.75,0"/><path class="cls-1" d="M11.5,20.11h-2s-8.86-5-7.75,0"/><path class="cls-1" d="M11.5,30.44h-2s-8.86,5.05-7.75,0"/><path class="cls-1" d="M11.5,30.44h-2s-8.86-5.06-7.75,0"/><path class="cls-1" d="M11.5,38.32h-2s-8.86,5-7.75,0"/><path class="cls-1" d="M11.5,38.32h-2s-8.86-5-7.75,0"/><path class="cls-1" d="M10.12,47.52h-2s-8.86,5.06-7.75,0"/><path class="cls-1" d="M10.12,47.52h-2s-8.86-5.05-7.75,0"/><path class="cls-1" d="M10.12,55.56h-2s-8.86,5-7.75,0"/><path class="cls-1" d="M10.12,55.56h-2s-8.86-5.06-7.75,0"/><path class="cls-1" d="M11.5,71.92H36.15L39.75,68s-6.09-43.2-2.49-52.62L38.37,4.9S29.5,7.11,27.57,3c0,0-3.33-4.71-3.6-1.66"/><path class="cls-1" d="M37.73,9.8h2s8.86,5,7.76,0"/><path class="cls-1" d="M37.73,9.8h2s8.86-5.05,7.76,0"/><path class="cls-1" d="M36.35,20.13h2s8.86,5.05,7.75,0"/><path class="cls-1" d="M36.35,20.13h2s8.86-5,7.75,0"/><path class="cls-1" d="M36.35,30.46h2s8.86,5,7.75,0"/><path class="cls-1" d="M36.35,30.46h2s8.86-5.05,7.75,0"/><path class="cls-1" d="M36.35,38.34h2s8.86,5,7.75,0"/><path class="cls-1" d="M36.35,38.34h2s8.86-5.05,7.75,0"/><path class="cls-1" d="M37.73,47.55h2s8.86,5.05,7.76,0"/><path class="cls-1" d="M37.73,47.55h2s8.86-5,7.76,0"/><path class="cls-1" d="M37.73,55.58h2s8.86,5.05,7.76,0"/><path class="cls-1" d="M37.73,55.58h2s8.86-5,7.76,0"/><polyline class="cls-2" points="16.96 71.76 23.61 9.92 30.81 71.76"/></svg>