<svg id="guitar4" xmlns="http://www.w3.org/2000/svg" viewBox="0 0 59.93 84.44"><defs><style>.cls-1{fill:#231f20;}.cls-1,.cls-2{stroke:#231f20;stroke-miterlimit:10;stroke-width:0.5px;}.cls-2{fill:#fff;}</style></defs><path class="cls-1" d="M30.13.28s3.66-.72,6.22,5.23c0,0,10.6,6.3,13.15,10.33,0,0,4,37.65-6.57,60.67l.36,7.68H30.13"/><path class="cls-1" d="M30.13.28s-3.65-.72-6.21,5.23c0,0-10.6,6.3-13.15,10.33,0,0-4,37.65,6.57,60.67L17,84.19H30.13"/><path class="cls-1" d="M10,31.75H8s-8.77,5-7.68,0"/><path class="cls-1" d="M10,31.75H8s-8.77-5-7.68,0"/><path class="cls-1" d="M10,45.41H8s-8.77,5-7.68,0"/><path class="cls-1" d="M10,45.41H8s-8.77-5-7.68,0"/><path class="cls-1" d="M12.21,58.61h-2s-8.77,5-7.67,0"/><path class="cls-1" d="M12.21,58.61h-2s-8.77-5-7.67,0"/><path class="cls-1" d="M49.91,32h2s8.77,5,7.67,0"/><path class="cls-1" d="M49.91,32h2s8.77-5,7.67,0"/><path class="cls-1" d="M49.91,45.64h2s8.77,5,7.67,0"/><path class="cls-1" d="M49.91,45.64h2s8.77-5,7.67,0"/><path class="cls-1" d="M47.72,58.84h2s8.77,5,7.67,0"/><path class="cls-1" d="M47.72,58.84h2s8.77-5,7.67,0"/><polygon class="cls-2" points="17.34 76.51 42.92 76.51 43.29 84.19 16.98 84.19 17.34 76.51"/><path class="cls-2" d="M32.69,66.65h7.5S48,28.36,44.75,20.1l-5.62-.63S35.62,62.26,32.69,66.65Z"/><path class="cls-2" d="M26.51,66.65H19S11.16,28.36,14.45,20.1l5.63-.63S23.59,62.26,26.51,66.65Z"/></svg>