<svg id="guitar3" xmlns="http://www.w3.org/2000/svg" viewBox="0 0 49.98 89.14"><defs><style>.cls-1{fill:#231f20;}.cls-1,.cls-2{stroke:#231f20;stroke-miterlimit:10;stroke-width:0.5px;}.cls-2{fill:#fff;}</style></defs><path class="cls-1" d="M34.08,88.17s-12.68,2.54-18.31-2V74.93A13,13,0,0,0,7,65.35S15.2,7.36,13.8.29c0,0,16.06,1.94,23.1,5.32,0,0-1.41,38.61,7.61,57.48C44.51,63.09,31.55,73,34.08,88.17Z"/><path class="cls-2" d="M17.6,4.6l-1,4s9.86,4,17.19,3.75V7.78c-2-.53-4.11-1-6.3-1.5C24,5.55,20.72,5,17.6,4.6Z"/><path class="cls-1" d="M13.19,18.31H11.24s-8.57,4.88-7.5,0"/><path class="cls-1" d="M13.19,18.31H11.24s-8.57-4.89-7.5,0"/><path class="cls-1" d="M11.8,34h-2s-8.57,4.89-7.49,0"/><path class="cls-1" d="M11.8,34h-2s-8.57-4.88-7.49,0"/><path class="cls-1" d="M9.82,50.45l-1.93-.3S-1.34,53.61.49,49"/><path class="cls-1" d="M9.82,50.45l-1.93-.3S.2,44,.49,49"/><path class="cls-1" d="M36.78,17.71h2s8.56,4.88,7.49,0"/><path class="cls-1" d="M36.78,17.71h2s8.56-4.89,7.49,0"/><path class="cls-1" d="M38.17,33.4h1.95s8.57,4.88,7.5,0"/><path class="cls-1" d="M38.17,33.4h1.95s8.57-4.88,7.5,0"/><path class="cls-1" d="M40.16,49.85l1.92-.31s9.23,3.47,7.41-1.18"/><path class="cls-1" d="M40.16,49.85l1.92-.31s7.69-6.17,7.41-1.18"/><path class="cls-2" d="M18,88.18q.75-33.53,1.48-67.07l11.83-2.82,2.82,70.59Z"/></svg>