<svg id="guitar2" xmlns="http://www.w3.org/2000/svg" viewBox="0 0 39.62 88.75"><defs><style>.cls-1{fill:#fff;}.cls-1,.cls-2{stroke:#231f20;stroke-miterlimit:10;stroke-width:0.5px;}.cls-2{fill:#231f20;}</style></defs><path class="cls-1" d="M26.62,88a11.86,11.86,0,0,1,1.83-4.91c1.67-2.64,4.84-5.65,10.85-7.11,0,0-14-41.6-12.68-66.95L12.65.27S8.1-.46,9.07,6.57l-.13,76.9S33.12,80.55,26.62,88Z"/><path class="cls-2" d="M8.94,9.42H7.16s-7.8,4.45-6.83,0"/><path class="cls-2" d="M8.94,9.42H7.16S-.64,5,.33,9.42"/><path class="cls-2" d="M8.94,19H7.16S-.64,23.49.33,19"/><path class="cls-2" d="M8.94,19H7.16S-.64,14.6.33,19"/><path class="cls-2" d="M8.94,27.24H7.16s-7.8,4.45-6.83,0"/><path class="cls-2" d="M8.94,27.24H7.16s-7.8-4.45-6.83,0"/><path class="cls-2" d="M8.94,35.72H7.16s-7.8,4.45-6.83,0"/><path class="cls-2" d="M8.94,35.72H7.16s-7.8-4.45-6.83,0"/><path class="cls-2" d="M8.94,45.34H7.16s-7.8,4.45-6.83,0"/><path class="cls-2" d="M8.94,45.34H7.16s-7.8-4.44-6.83,0"/><path class="cls-2" d="M8.94,53.54H7.16s-7.8,4.44-6.83,0"/><path class="cls-2" d="M8.94,53.54H7.16s-7.8-4.45-6.83,0"/><path class="cls-2" d="M28.45,83.11V60.73S14.34,30.14,8.94,4.48v79Z"/></svg>