<?xml version="1.0" encoding="UTF-8" standalone="no"?>
<!DOCTYPE svg PUBLIC "-//W3C//DTD SVG 1.1//EN" "http://www.w3.org/Graphics/SVG/1.1/DTD/svg11.dtd">
<svg width="100%" height="100%" viewBox="0 0 90 90" version="1.1" xmlns="http://www.w3.org/2000/svg" xmlns:xlink="http://www.w3.org/1999/xlink" xml:space="preserve" xmlns:serif="http://www.serif.com/" style="fill-rule:evenodd;clip-rule:evenodd;stroke-linejoin:round;stroke-miterlimit:2;">
    <rect x="0" y="0" width="90" height="90" style="fill:white;"/>
    <g id="outline" transform="matrix(1,0,0,1.04362,-0.595,24.5556)">
        <path d="M1,1L90.19,1L90.19,38.18L1,38.18L1,1Z" style="fill-rule:nonzero;"/>
    </g>
    <g id="outline1" serif:id="outline" transform="matrix(0.969532,0,0,0.960474,0.593769,26.1083)">
        <path d="M1,1L90.19,1L90.19,38.18L1,38.18L1,1Z" style="fill:white;fill-rule:nonzero;"/>
    </g>
    <g id="sharp_keys" transform="matrix(1,0,0,1,-0.595,24.5992)">
        <path d="M4.8,24.73L8.75,24.73L8.75,2.42L4.96,2.42L4.8,24.73Z" style="fill:rgb(35,31,32);fill-rule:nonzero;"/>
        <rect x="12.23" y="2.42" width="3.8" height="22.31" style="fill:rgb(35,31,32);"/>
        <path d="M48.47,24.73L52.42,24.73L52.42,2.42L48.63,2.42L48.47,24.73Z" style="fill:rgb(35,31,32);fill-rule:nonzero;"/>
        <rect x="55.91" y="2.42" width="3.8" height="22.31" style="fill:rgb(35,31,32);"/>
        <rect x="23.15" y="2.42" width="3.8" height="22.31" style="fill:rgb(35,31,32);"/>
        <rect x="30.27" y="2.42" width="3.8" height="22.31" style="fill:rgb(35,31,32);"/>
        <rect x="37.39" y="2.42" width="3.8" height="22.31" style="fill:rgb(35,31,32);"/>
        <rect x="67.14" y="2.42" width="3.8" height="22.31" style="fill:rgb(35,31,32);"/>
        <rect x="74.26" y="2.42" width="3.8" height="22.31" style="fill:rgb(35,31,32);"/>
        <rect x="81.38" y="2.42" width="3.8" height="22.31" style="fill:rgb(35,31,32);"/>
    </g>
    <g id="main_keys" transform="matrix(1,0,0,1,-0.595,24.5992)">
        <path d="M19.51,2.42L19.51,39.61" style="fill:none;fill-rule:nonzero;stroke:black;stroke-width:1px;"/>
        <path d="M44.83,2.42L44.83,39.61" style="fill:none;fill-rule:nonzero;stroke:black;stroke-width:1px;"/>
        <path d="M63.66,2.42L63.66,39.61" style="fill:none;fill-rule:nonzero;stroke:black;stroke-width:1px;"/>
        <g transform="matrix(1,0,0,1.00696,0,-0.275526)">
            <path d="M88.5,2.42L88.5,39.61" style="fill:none;fill-rule:nonzero;stroke:black;stroke-width:1px;"/>
        </g>
        <path d="M13.34,24.73L13.34,39.61" style="fill:none;fill-rule:nonzero;stroke:black;stroke-width:1px;"/>
        <path d="M7.49,24.73L7.49,39.61" style="fill:none;fill-rule:nonzero;stroke:black;stroke-width:1px;"/>
        <path d="M57.17,24.73L57.17,39.61" style="fill:none;fill-rule:nonzero;stroke:black;stroke-width:1px;"/>
        <path d="M51.32,24.73L51.32,39.61" style="fill:none;fill-rule:nonzero;stroke:black;stroke-width:1px;"/>
        <path d="M32.01,24.73L32.01,39.61" style="fill:none;fill-rule:nonzero;stroke:black;stroke-width:1px;"/>
        <path d="M38.42,24.73L38.42,39.61" style="fill:none;fill-rule:nonzero;stroke:black;stroke-width:1px;"/>
        <path d="M26.16,24.73L26.16,39.61" style="fill:none;fill-rule:nonzero;stroke:black;stroke-width:1px;"/>
        <path d="M75.8,24.73L75.8,39.61" style="fill:none;fill-rule:nonzero;stroke:black;stroke-width:1px;"/>
        <path d="M82.21,24.73L82.21,39.61" style="fill:none;fill-rule:nonzero;stroke:black;stroke-width:1px;"/>
        <path d="M69.95,24.73L69.95,39.61" style="fill:none;fill-rule:nonzero;stroke:black;stroke-width:1px;"/>
    </g>
</svg>
