<svg id="piano" xmlns="http://www.w3.org/2000/svg" viewBox="0 0 91.19 39.61"><defs><style>.cls-1,.cls-3{fill:none;}.cls-1,.cls-2,.cls-3{stroke:#231f20;stroke-miterlimit:10;}.cls-1{stroke-width:2px;}.cls-2{fill:#231f20;}.cls-2,.cls-3{stroke-width:0.5px;}</style></defs><polygon id="outline" class="cls-1" points="1 1 4.77 1 90.19 1 90.19 38.18 1 38.18 1 1"/><g id="sharp_keys"><polygon class="cls-2" points="4.8 24.73 8.75 24.73 8.75 2.42 4.96 2.42 4.8 24.73"/><rect class="cls-2" x="12.23" y="2.42" width="3.8" height="22.31"/><polygon class="cls-2" points="48.47 24.73 52.42 24.73 52.42 2.42 48.63 2.42 48.47 24.73"/><rect class="cls-2" x="55.91" y="2.42" width="3.8" height="22.31"/><rect class="cls-2" x="23.15" y="2.42" width="3.8" height="22.31"/><rect class="cls-2" x="30.27" y="2.42" width="3.8" height="22.31"/><rect class="cls-2" x="37.39" y="2.42" width="3.8" height="22.31"/><rect class="cls-2" x="67.14" y="2.42" width="3.8" height="22.31"/><rect class="cls-2" x="74.26" y="2.42" width="3.8" height="22.31"/><rect class="cls-2" x="81.38" y="2.42" width="3.8" height="22.31"/></g><g id="main_keys"><line class="cls-3" x1="19.51" y1="2.42" x2="19.51" y2="39.61"/><line class="cls-3" x1="44.83" y1="2.42" x2="44.83" y2="39.61"/><line class="cls-3" x1="63.66" y1="2.42" x2="63.66" y2="39.61"/><line class="cls-3" x1="88.5" y1="2.42" x2="88.5" y2="39.61"/><line class="cls-3" x1="13.34" y1="24.73" x2="13.34" y2="39.61"/><line class="cls-3" x1="7.49" y1="24.73" x2="7.49" y2="39.61"/><line class="cls-3" x1="57.17" y1="24.73" x2="57.17" y2="39.61"/><line class="cls-3" x1="51.32" y1="24.73" x2="51.32" y2="39.61"/><line class="cls-3" x1="32.01" y1="24.73" x2="32.01" y2="39.61"/><line class="cls-3" x1="38.42" y1="24.73" x2="38.42" y2="39.61"/><line class="cls-3" x1="26.16" y1="24.73" x2="26.16" y2="39.61"/><line class="cls-3" x1="75.8" y1="24.73" x2="75.8" y2="39.61"/><line class="cls-3" x1="82.21" y1="24.73" x2="82.21" y2="39.61"/><line class="cls-3" x1="69.95" y1="24.73" x2="69.95" y2="39.61"/></g></svg>