<?xml version="1.0" encoding="UTF-8" standalone="no"?>
<!DOCTYPE svg PUBLIC "-//W3C//DTD SVG 1.1//EN" "http://www.w3.org/Graphics/SVG/1.1/DTD/svg11.dtd">
<svg width="100%" height="100%" viewBox="0 0 400 400" version="1.1" xmlns="http://www.w3.org/2000/svg" xmlns:xlink="http://www.w3.org/1999/xlink" xml:space="preserve" xmlns:serif="http://www.serif.com/" style="fill-rule:evenodd;clip-rule:evenodd;stroke-linecap:round;stroke-linejoin:round;stroke-miterlimit:0.231255;">
    <path d="M400,100C400,44.808 355.192,0 300,0L100,0C44.808,0 0,44.808 0,100L0,300C0,355.192 44.808,400 100,400L300,400C355.192,400 400,355.192 400,300L400,100Z" style="fill:white;stroke:black;stroke-width:0.37px;"/>
    <path d="M66.137,85.243C65.396,82.352 64.652,79.384 64.07,76.934C64.928,76.463 65.379,75.447 65.102,74.466C65.07,74.353 64.57,72.829 63.971,71.672C63.598,70.951 63.153,70.36 62.772,70.038C62.136,69.5 61.464,69.351 60.876,69.4C60.349,69.445 59.819,69.643 59.339,70.124C59.116,70.347 58.821,70.718 58.717,71.348C58.682,71.558 58.665,72.038 58.774,72.738C59.408,76.802 64.349,95.493 65.015,97.862C65.31,98.908 65.6,99.955 65.887,101.001C66.433,109.334 67.93,117.652 69.798,125.656C71.061,131.069 72.923,136.138 74.976,141.289C75.951,143.737 76.919,146.187 77.911,148.627C78.36,149.733 79.137,152.292 79.638,153.503C79.896,154.126 80.174,154.544 80.341,154.73C81.077,155.547 81.892,155.553 82.435,155.446C82.84,155.366 84.25,154.957 84.25,152.945C84.25,150.97 83.612,148.696 82.725,146.377C81.585,143.394 80.023,140.314 79.432,137.804C77.24,128.489 75.071,119.228 72.71,109.989C74.235,111.768 77.548,112.812 81.681,110.511C88.987,106.444 95.453,100.11 99.609,92.838C102.791,87.27 103.601,75.462 101.149,66.014C99.316,58.949 95.599,53.307 90.256,51.874C87.842,51.227 85.062,51.378 81.905,52.693C78.296,54.197 75.646,57.078 73.646,60.47C71.811,63.581 70.524,67.114 69.449,70.205C67.745,75.101 66.687,80.137 66.137,85.243ZM71.715,106.143C72.027,104.433 73.282,102.609 75.995,101.224C77.052,100.684 78.348,101.104 78.888,102.161C79.428,103.218 79.008,104.514 77.951,105.054C77.11,105.483 76.512,105.953 76.167,106.461C75.982,106.732 75.839,106.986 75.972,107.191C76.119,107.418 76.43,107.496 76.789,107.531C77.564,107.605 78.514,107.352 79.59,106.754C86.225,103.06 92.101,97.309 95.875,90.705C99.231,84.831 99.306,71.055 95.372,62.452C93.969,59.383 92.075,56.961 89.44,56.115C87.757,55.575 85.805,55.727 83.559,56.663C80.814,57.806 78.871,60.075 77.35,62.655C75.662,65.516 74.5,68.775 73.51,71.618C70.314,80.804 69.534,90.505 70.126,100.202C70.668,102.181 71.196,104.16 71.715,106.143Z"/>
    <path d="M121.706,152.418C121.701,152.471 121.699,152.525 121.699,152.579C121.699,153.766 122.663,154.729 123.849,154.729C124.455,154.729 125.35,154.563 125.835,153.409C125.869,153.328 126.037,152.896 125.998,152.129C125.896,150.108 124.882,139.524 123.788,129.994C121.729,112.05 118.135,94.176 114.98,76.395C114.857,75.703 112.203,65.556 111.392,59.294C111.234,58.069 111.224,56.601 111.228,56.058C111.676,55.519 111.852,54.771 111.631,54.052C111.283,52.917 110.079,52.279 108.945,52.627C108.304,52.824 107.701,53.26 107.308,54.09C107.022,54.693 106.83,55.786 106.888,57.236C107.117,62.926 110.602,76.339 110.746,77.147C113.885,94.841 117.467,112.627 119.516,130.485C120.596,139.897 121.602,150.349 121.703,152.346L121.706,152.418ZM122.287,151.103L122.286,151.105L122.298,151.091L122.287,151.103ZM122.353,151.036C122.74,150.66 123.268,150.429 123.849,150.429C123.34,150.429 122.817,150.579 122.353,151.036Z"/>
    <path d="M157.671,117.386C157.863,118.329 158.007,119.038 158.086,119.33C159.163,123.33 164.205,137.613 169.854,145.825C171.44,148.131 173.096,149.976 174.709,151.101C176.078,152.055 177.457,152.532 178.783,152.532C179.969,152.532 180.933,151.568 180.933,150.382C180.933,149.195 179.969,148.231 178.783,148.231C178.057,148.231 177.354,147.77 176.603,147.137C175.525,146.228 174.455,144.925 173.397,143.388C168.031,135.587 163.262,122.011 162.239,118.212C161.921,117.032 160.527,109.211 159.298,106.127C158.932,105.208 158.502,104.579 158.163,104.258C157.592,103.721 156.983,103.552 156.443,103.552C154.629,103.552 153.268,104.821 152.822,107.165C152.294,109.941 153.122,114.687 153.207,115.459C153.478,117.932 154.231,129.136 152.283,135.474C152.014,136.351 151.697,137.123 151.292,137.723C151.055,138.076 150.81,138.37 150.48,138.499C150.105,138.645 149.677,138.516 149.155,138.266C148.518,137.961 147.824,137.462 147.051,136.766C144.3,134.29 143.395,130.489 143.447,126.454C143.531,119.851 146.228,112.579 149.07,108.371C150.326,106.51 152.736,102.933 154.955,100.896C155.271,100.605 155.699,100.313 156.015,100.112C156.109,100.44 156.218,100.89 156.261,101.318C156.378,102.499 157.433,103.362 158.614,103.244C159.794,103.127 160.657,102.072 160.54,100.892C160.265,98.138 159.284,96.744 158.329,96.122C157.093,95.316 155.474,95.332 153.727,96.421C150.899,98.183 147.214,103.435 145.506,105.964C142.294,110.72 139.241,118.937 139.147,126.399C139.079,131.742 140.531,136.684 144.174,139.963C147.448,142.909 150.105,143.261 152.042,142.506C153.946,141.763 155.482,139.705 156.394,136.738C158.116,131.133 157.951,122.032 157.671,117.386Z"/>
    <path d="M199.061,104.134C199.478,104.5 200.036,104.705 200.632,104.662C201.816,104.576 202.707,103.546 202.622,102.362C202.447,99.944 201.228,99.093 200.292,98.857C199.434,98.64 198.113,98.887 196.797,100.134C193.839,102.936 189.091,112.002 188.437,114.259C185.824,123.267 187.89,135.666 192.944,143.271C195.709,147.433 199.367,150.174 203.534,150.594C207.613,151.006 212.358,149.223 217.355,143.779C218.158,142.904 218.099,141.543 217.225,140.741C216.351,139.938 214.989,139.997 214.187,140.871C210.432,144.962 207.031,146.625 203.965,146.316C200.986,146.015 198.503,143.868 196.525,140.892C192.094,134.223 190.276,123.354 192.567,115.457C192.977,114.042 195.243,109.592 197.433,106.259C197.904,105.542 198.535,104.755 199.061,104.134Z"/>
    <path d="M218.654,127.7C218.145,128.591 217.764,129.498 217.55,130.421C217.282,131.577 218.003,132.733 219.159,133.001C220.315,133.269 221.471,132.548 221.739,131.392C221.766,131.279 221.796,131.167 221.83,131.055C227.567,135.839 236.206,137.558 244.587,133.25C245.642,132.708 246.059,131.411 245.516,130.355C244.974,129.3 243.677,128.883 242.621,129.426C235.776,132.944 228.687,131.444 224.164,127.397C224.949,126.546 225.846,125.709 226.756,124.865C229.533,122.289 232.506,119.729 234.098,117.057C238.465,109.727 237.555,103.356 234.7,100.47C231.664,97.402 225.822,97.235 220.117,104.162C214.186,111.364 213.988,119.029 216.983,124.991C217.46,125.939 218.02,126.846 218.654,127.7ZM221.403,124.096C221.675,123.805 221.956,123.517 222.244,123.23C225.078,120.411 228.681,117.748 230.404,114.856C232.321,111.638 233.043,108.697 232.81,106.388C232.687,105.171 232.304,104.162 231.643,103.495C230.948,102.792 229.942,102.575 228.798,102.866C227.145,103.286 225.324,104.604 223.437,106.896C218.826,112.494 218.497,118.425 220.826,123.06C221.003,123.414 221.196,123.76 221.403,124.096Z"/>
    <path d="M70.841,268.488C69.405,265.382 68.141,262.695 67.921,262.241C60.577,247.079 53.916,231.783 47.464,216.211C46.777,214.553 45.338,211 44.027,207.596C44.816,206.974 45.084,205.86 44.61,204.931C42.955,201.689 41.949,199.938 41.443,199.25C41.098,198.782 40.791,198.538 40.604,198.416C39.82,197.908 39.142,198.002 38.663,198.165C38.074,198.365 37.221,198.867 37.16,200.223C37.143,200.592 37.312,201.565 37.741,202.894C38.994,206.771 42.318,215.025 43.492,217.857C49.975,233.507 56.671,248.878 64.051,264.115C64.534,265.113 70.167,277.107 71.304,280.064C71.646,280.952 72.12,283.048 72.423,284.051C72.578,284.567 72.747,284.928 72.846,285.089C73.533,286.202 74.507,286.203 75.011,286.136C75.322,286.094 76.926,285.773 76.926,283.686C76.926,278.547 75.372,273.059 75.11,267.831C74.968,264.99 76.365,259.831 78.704,256.316C79.83,254.624 81.105,253.231 82.708,253.187C83.716,253.16 84.748,253.735 85.894,254.881C89.328,258.315 91.288,262.846 93.137,267.474C95.161,272.54 97.043,277.726 100.131,282.013C101.406,283.784 103.212,286.288 105.296,287.777C107.122,289.082 109.154,289.666 111.27,289.046C112.409,288.712 113.063,287.517 112.729,286.378C112.395,285.239 111.2,284.585 110.061,284.919C108.946,285.246 107.976,284.509 107.065,283.684C105.682,282.434 104.513,280.739 103.621,279.5C100.733,275.49 99.023,270.616 97.13,265.878C95.061,260.7 92.778,255.683 88.935,251.84C86.713,249.618 84.546,248.835 82.59,248.889C80.59,248.944 78.713,249.894 77.085,251.511C73.071,255.498 70.605,263.84 70.815,268.046L70.841,268.488Z"/>
    <path d="M113.152,259.016C113.142,261.286 113.251,263.393 113.287,263.756C113.678,267.703 116.373,277.16 120.711,283.108C124.112,287.773 128.512,290.256 133.395,288.111C135.336,287.259 136.728,285.732 137.683,283.87C138.905,281.484 139.38,278.525 139.545,276.144C140.425,263.422 136.786,253.725 125.548,248.073C123.634,247.111 121.081,245.636 118.517,244.838C116.462,244.199 114.393,243.993 112.538,244.528C110.332,245.165 109.119,246.326 108.502,247.623C107.883,248.926 107.851,250.471 108.352,252.09C109.105,254.529 111.175,257.176 113.152,259.016ZM117.463,261.221C117.496,262.306 117.546,263.129 117.566,263.332C117.914,266.849 120.32,275.274 124.185,280.575C126.256,283.414 128.693,285.48 131.666,284.174C132.979,283.597 133.734,282.364 134.25,281.018C134.897,279.33 135.145,277.426 135.255,275.847C136.001,265.054 133.151,256.71 123.616,251.915C122.143,251.174 120.268,250.089 118.313,249.324C116.755,248.714 115.149,248.251 113.73,248.66C113.049,248.857 112.576,249.069 112.386,249.469C112.266,249.722 112.287,250.013 112.338,250.318C112.432,250.876 112.674,251.459 112.986,252.043C113.204,252.45 113.457,252.857 113.732,253.254C113.921,252.643 114.144,252.18 114.364,251.916C115.066,251.071 115.921,250.841 116.826,251.036C117.362,251.15 118.205,251.54 118.946,252.792C119.55,253.814 119.212,255.134 118.191,255.738C117.987,255.859 117.771,255.942 117.552,255.989C117.52,256.313 117.496,256.66 117.478,257.02C117.602,257.096 117.721,257.162 117.834,257.217C118.9,257.737 119.344,259.025 118.824,260.092C118.543,260.669 118.037,261.063 117.463,261.221Z"/>
    <path d="M139.958,205.756C140.06,205.827 140.185,205.92 140.273,206.004C140.647,206.362 141.017,206.842 141.394,207.408C145.761,213.974 150.024,230.527 150.777,232.462C158.257,251.697 168.098,274.797 183.537,289.283C184.403,290.095 185.765,290.051 186.576,289.186C187.388,288.32 187.345,286.959 186.48,286.147C171.487,272.08 162.049,249.582 154.785,230.904C154.006,228.902 149.492,211.818 144.975,205.026C144.103,203.716 143.199,202.74 142.341,202.16C141.458,201.563 140.567,201.315 139.712,201.353C138.43,201.41 137.025,202.106 135.864,204.105C135.268,205.131 135.618,206.448 136.644,207.044C137.67,207.639 138.987,207.29 139.583,206.264C139.688,206.083 139.845,205.887 139.958,205.756Z"/>
    <path d="M199.415,249.576C198.503,249.613 197.602,249.766 196.722,250.049C194.377,250.802 192.104,252.444 190.088,255.357C187.742,258.745 187.514,265.622 189.146,272.059C190.095,275.8 191.628,279.374 193.55,281.972C195.007,283.94 196.706,285.366 198.523,286.061C201.145,287.063 203.873,286.857 206.547,285.993C209.965,284.888 213.294,282.659 216.05,281.189C217.098,280.63 217.494,279.327 216.936,278.28C216.377,277.233 215.074,276.836 214.027,277.394C211.86,278.55 209.332,280.225 206.682,281.352C204.499,282.28 202.229,282.874 200.059,282.044C198.922,281.609 197.918,280.646 197.007,279.414C195.379,277.214 194.118,274.17 193.314,271.002C192.504,267.806 192.161,264.475 192.447,261.716C192.611,260.14 192.958,258.766 193.623,257.805C194.985,255.838 196.454,254.652 198.037,254.143C199.504,253.672 201.032,253.793 202.569,254.28C203.926,256.261 205.308,258.205 206.734,260.083C208.536,262.456 210,265.709 211.939,268.087C213.578,270.097 215.535,271.538 218.027,271.898C219.328,272.086 220.263,271.514 220.768,270.303C221.128,269.44 221.039,267.755 220.733,266.869C219.909,264.491 217.861,261.124 216.339,259.256C215.315,257.999 214.154,256.852 212.942,255.775C210.546,253.646 207.968,251.88 205.365,250.783C196.84,238.296 189.034,224.489 176.912,215.421C175.962,214.71 174.614,214.905 173.903,215.855C173.192,216.805 173.386,218.154 174.336,218.864C184.926,226.786 192.083,238.457 199.415,249.576ZM212.997,261.962C213.467,262.75 213.946,263.531 214.451,264.266C214.745,264.693 215.043,265.107 215.358,265.491C214.613,264.169 213.734,262.866 213.006,261.973L212.997,261.962Z"/>
    <path d="M244.083,256.952C243.975,256.701 243.843,256.359 243.769,256.034C243.505,254.877 242.35,254.152 241.194,254.417C240.037,254.682 239.312,255.836 239.577,256.992C240.124,259.385 241.177,260.554 242.156,261.067C243.417,261.727 244.908,261.609 246.405,260.614C248.99,258.895 251.805,253.901 252.3,251.533C254.14,242.748 249.66,235.278 243.773,233.412C239.718,232.127 234.805,233.258 230.546,238.627C228.131,241.671 227.999,245.437 229.146,249.262C230.614,254.162 234.228,259.162 236.345,262.208C242.337,270.83 247.121,275.785 252.637,277.536C258.221,279.309 264.711,277.917 274.229,273.158C275.291,272.627 275.722,271.335 275.191,270.273C274.66,269.212 273.368,268.781 272.306,269.312C264.173,273.378 258.71,274.952 253.939,273.437C249.1,271.901 245.132,267.317 239.876,259.754C237.953,256.986 234.599,252.481 233.265,248.028C232.543,245.617 232.393,243.217 233.915,241.299C236.719,237.765 239.804,236.666 242.474,237.512C246.675,238.843 249.404,244.383 248.091,250.652C247.794,252.071 246.324,254.794 244.776,256.383C244.586,256.579 244.304,256.794 244.083,256.952Z"/>
    <path d="M302.895,268.734C302.841,264.592 299.82,260.162 295.441,255.861C289.625,250.147 281.478,244.477 276.977,239.409C275.893,238.188 275.034,237.02 274.547,235.892C274.212,235.114 274.055,234.379 274.284,233.68C274.543,232.889 275.232,232.208 276.304,231.523C277.759,230.592 279.832,229.76 282.625,228.996C285.792,228.129 288.967,227.288 292.138,226.435C293.284,226.126 293.964,224.945 293.655,223.799C293.347,222.654 292.166,221.974 291.02,222.282C287.843,223.137 284.663,223.98 281.49,224.848C274.316,226.811 271.103,229.58 270.198,232.339C269.232,235.282 270.615,238.721 273.762,242.264C278.316,247.392 286.543,253.148 292.428,258.929C295.851,262.292 298.553,265.551 298.595,268.789C298.61,269.976 299.586,270.927 300.773,270.911C301.96,270.896 302.91,269.92 302.895,268.734Z"/>
</svg>
