<svg id="synth2" xmlns="http://www.w3.org/2000/svg" viewBox="0 0 90.73 85.54"><defs><style>.cls-1{fill:#231f20;}.cls-1,.cls-2{stroke:#231f20;stroke-miterlimit:10;stroke-width:0.5px;}.cls-2{fill:#fff;}</style></defs><g id="dials"><g id="dial_1"><path class="cls-1" d="M9.48,2.31h6v35h7.91s1.09-.77,1.09,1.69v8.62s.77,1.69-1.87,1.69H15.48v32s-3.43,6.24-7,0V49.5l-6.72-.15S.54,50.26.39,47.68.39,39,.39,39s-.92-1.67,2-1.67,7.11.15,7.11.15Z"/><rect class="cls-2" x="2.48" y="41.34" width="19" height="4"/></g><g id="dial_2"><path class="cls-1" d="M41.48,2.77s3.66-5.63,7,0V45.34h7.23s2.25,0,1.77,1.68l.06,7.76s.58,2.28-2.63,2.13-6.43,0-6.43,0l-.15,24.69s-3.65,6.27-6.85,0V57.34H35S33.17,58,33.48,55l0-7.32A2.56,2.56,0,0,1,34.23,46a2.47,2.47,0,0,1,1.36-.63h5.89Z"/><rect class="cls-2" x="35.48" y="49.34" width="19" height="3"/></g><g id="dial_3"><path class="cls-1" d="M74.48,3.23c.19,0,4-6.7,7,0V27.34h7.44s1.57-.76,1.42,2.29,0,7.76,0,7.76.93,2.89-2.21,2.13l-5.66.13V81.23s-2.51,8.83-8,.46V39.34h-6.4s-1.6,1.26-1.6-2.82v-7s-.59-3.14,1.74-3.14h6.26Z"/><rect class="cls-2" x="68.48" y="31.34" width="19" height="3"/></g></g></svg>