<svg id="synth3" xmlns="http://www.w3.org/2000/svg" viewBox="0 0 90.14 45.32"><defs><style>.cls-1{fill:#231f20;stroke:#231f20;stroke-miterlimit:10;stroke-width:0.5px;}</style></defs><path id="line" class="cls-1" d="M1.62,25.09a3.15,3.15,0,0,0,0,5.15H12.86s2.92,4,4,4.21a4.17,4.17,0,0,0,1.74.37c1.39-.22,2.58-2.13,2.84-4.7l1.11-3.57L29.48,42.7s2.76,4,4.76,0l7.85-28.61,8.15,28.77s3.08,5.07,5.24-.16l5.07-19.07,5.08,8.3s3.08,4.16,5.69-.15l3.54-3.54H88.23s3.75-1.72,0-5h-14l-4,3.68L62.66,14.86s-2.7-2.06-4.92.32l-4.44,18L45.08,2s-3-4-5.42,0L31.25,34.59,23.63,16.92s-1.9-3.33-4.75,0L16.5,26.76l-2.07-1.52Z"/></svg>