<svg id="synth1" xmlns="http://www.w3.org/2000/svg" viewBox="0 0 90.21 90.13"><defs><style>.cls-1{fill:#231f20;}.cls-1,.cls-2{stroke:#231f20;stroke-miterlimit:10;}.cls-2{fill:#fff;stroke-width:0.5px;}</style></defs><path id="synth_bg" class="cls-1" d="M.57,6S-.13.14,5.75.52,83.46.5,83.46.5,90.72.64,89.59,6l.12,78.33s-.87,5.63-4.5,5.26l-79.33,0S-.23,89.11.57,85Z"/><g id="synth_bars"><rect class="cls-2" x="8.88" y="30.55" width="11.05" height="5.38"/><rect class="cls-2" x="8.88" y="39.69" width="11.05" height="5.38"/><rect class="cls-2" x="8.88" y="48.03" width="11.05" height="5.38"/><rect class="cls-2" x="8.88" y="57.17" width="11.05" height="5.38"/><rect class="cls-2" x="8.88" y="65.78" width="11.05" height="5.38"/><rect class="cls-2" x="8.88" y="74.92" width="11.05" height="5.38"/><rect class="cls-2" x="24.4" y="30.55" width="11.05" height="5.38"/><rect class="cls-2" x="24.4" y="21.67" width="11.05" height="5.38"/><rect class="cls-2" x="24.4" y="39.69" width="11.05" height="5.38"/><rect class="cls-2" x="24.4" y="48.03" width="11.05" height="5.38"/><rect class="cls-2" x="24.4" y="57.17" width="11.05" height="5.38"/><rect class="cls-2" x="24.4" y="65.78" width="11.05" height="5.38"/><rect class="cls-2" x="24.4" y="74.92" width="11.05" height="5.38"/><rect class="cls-2" x="39.54" y="39.69" width="11.05" height="5.38"/><rect class="cls-2" x="39.54" y="48.03" width="11.05" height="5.38"/><rect class="cls-2" x="39.54" y="57.17" width="11.05" height="5.38"/><rect class="cls-2" x="39.54" y="65.78" width="11.05" height="5.38"/><rect class="cls-2" x="39.54" y="74.92" width="11.05" height="5.38"/><rect class="cls-2" x="70.54" y="39.69" width="11.05" height="5.38"/><rect class="cls-2" x="70.54" y="48.03" width="11.05" height="5.38"/><rect class="cls-2" x="70.54" y="57.17" width="11.05" height="5.38"/><rect class="cls-2" x="70.54" y="65.78" width="11.05" height="5.38"/><rect class="cls-2" x="70.54" y="74.92" width="11.05" height="5.38"/><rect class="cls-2" x="55.27" y="48.03" width="11.05" height="5.38"/><rect class="cls-2" x="55.27" y="57.17" width="11.05" height="5.38"/><rect class="cls-2" x="55.27" y="65.78" width="11.05" height="5.38"/><rect class="cls-2" x="55.27" y="74.92" width="11.05" height="5.38"/></g></svg>